<svg id="visual" viewBox="0 0 900 600" width="900" height="600" xmlns="http://www.w3.org/2000/svg" xmlns:xlink="http://www.w3.org/1999/xlink" version="1.1"><path d="M0 91L82 91L82 157L164 157L164 193L245 193L245 145L327 145L327 193L409 193L409 151L491 151L491 181L573 181L573 97L655 97L655 193L736 193L736 229L818 229L818 97L900 97L900 199L900 0L900 0L818 0L818 0L736 0L736 0L655 0L655 0L573 0L573 0L491 0L491 0L409 0L409 0L327 0L327 0L245 0L245 0L164 0L164 0L82 0L82 0L0 0Z" fill="#865dff"></path><path d="M0 163L82 163L82 205L164 205L164 253L245 253L245 187L327 187L327 289L409 289L409 229L491 229L491 259L573 259L573 145L655 145L655 283L736 283L736 361L818 361L818 175L900 175L900 277L900 197L900 95L818 95L818 227L736 227L736 191L655 191L655 95L573 95L573 179L491 179L491 149L409 149L409 191L327 191L327 143L245 143L245 191L164 191L164 155L82 155L82 89L0 89Z" fill="#624dc5"></path><path d="M0 385L82 385L82 403L164 403L164 385L245 385L245 385L327 385L327 361L409 361L409 433L491 433L491 415L573 415L573 397L655 397L655 397L736 397L736 469L818 469L818 391L900 391L900 397L900 275L900 173L818 173L818 359L736 359L736 281L655 281L655 143L573 143L573 257L491 257L491 227L409 227L409 287L327 287L327 185L245 185L245 251L164 251L164 203L82 203L82 161L0 161Z" fill="#443c8d"></path><path d="M0 535L82 535L82 535L164 535L164 559L245 559L245 559L327 559L327 505L409 505L409 559L491 559L491 511L573 511L573 565L655 565L655 511L736 511L736 553L818 553L818 505L900 505L900 511L900 395L900 389L818 389L818 467L736 467L736 395L655 395L655 395L573 395L573 413L491 413L491 431L409 431L409 359L327 359L327 383L245 383L245 383L164 383L164 401L82 401L82 383L0 383Z" fill="#2d2a57"></path><path d="M0 601L82 601L82 601L164 601L164 601L245 601L245 601L327 601L327 601L409 601L409 601L491 601L491 601L573 601L573 601L655 601L655 601L736 601L736 601L818 601L818 601L900 601L900 601L900 509L900 503L818 503L818 551L736 551L736 509L655 509L655 563L573 563L573 509L491 509L491 557L409 557L409 503L327 503L327 557L245 557L245 557L164 557L164 533L82 533L82 533L0 533Z" fill="#191825"></path></svg>